<mxfile host="app.diagrams.net" modified="2023-04-02T17:27:23.399Z" agent="Mozilla/5.0 (Windows NT 10.0; Win64; x64) AppleWebKit/537.36 (KHTML, like Gecko) Chrome/111.0.0.0 Safari/537.36 Edg/111.0.1661.62" etag="gQ1cKRDOzhLThSY8zTfU" version="21.1.2" type="device">
  <diagram name="Страница 1" id="BbuDgM5FykfouBHdOJEF">
    <mxGraphModel dx="792" dy="1138" grid="1" gridSize="10" guides="1" tooltips="1" connect="1" arrows="1" fold="1" page="1" pageScale="1" pageWidth="827" pageHeight="1169" math="0" shadow="0">
      <root>
        <mxCell id="0" />
        <mxCell id="1" parent="0" />
        <mxCell id="wBLStyvCnBdGTO4EpeVb-5" style="edgeStyle=orthogonalEdgeStyle;rounded=0;orthogonalLoop=1;jettySize=auto;html=1;" edge="1" parent="1" source="wBLStyvCnBdGTO4EpeVb-1" target="wBLStyvCnBdGTO4EpeVb-4">
          <mxGeometry relative="1" as="geometry" />
        </mxCell>
        <mxCell id="wBLStyvCnBdGTO4EpeVb-1" value="Начало&lt;br&gt;makeList" style="ellipse;whiteSpace=wrap;html=1;" vertex="1" parent="1">
          <mxGeometry x="354" y="10" width="120" height="80" as="geometry" />
        </mxCell>
        <mxCell id="wBLStyvCnBdGTO4EpeVb-7" style="edgeStyle=orthogonalEdgeStyle;rounded=0;orthogonalLoop=1;jettySize=auto;html=1;entryX=0.5;entryY=0;entryDx=0;entryDy=0;" edge="1" parent="1" source="wBLStyvCnBdGTO4EpeVb-4" target="wBLStyvCnBdGTO4EpeVb-6">
          <mxGeometry relative="1" as="geometry" />
        </mxCell>
        <mxCell id="wBLStyvCnBdGTO4EpeVb-4" value="freeList(trainList)" style="rounded=0;whiteSpace=wrap;html=1;" vertex="1" parent="1">
          <mxGeometry x="354" y="110" width="120" height="60" as="geometry" />
        </mxCell>
        <mxCell id="wBLStyvCnBdGTO4EpeVb-9" style="edgeStyle=orthogonalEdgeStyle;rounded=0;orthogonalLoop=1;jettySize=auto;html=1;entryX=0.5;entryY=0;entryDx=0;entryDy=0;" edge="1" parent="1" source="wBLStyvCnBdGTO4EpeVb-6" target="wBLStyvCnBdGTO4EpeVb-8">
          <mxGeometry relative="1" as="geometry" />
        </mxCell>
        <mxCell id="wBLStyvCnBdGTO4EpeVb-6" value="&lt;div style=&quot;font-size: 14px; line-height: 19px;&quot;&gt;&lt;span style=&quot;background-color: rgb(255, 255, 255);&quot;&gt;trainList = addTrain(trainList)&lt;/span&gt;&lt;/div&gt;" style="rounded=0;whiteSpace=wrap;html=1;" vertex="1" parent="1">
          <mxGeometry x="322" y="210" width="184" height="60" as="geometry" />
        </mxCell>
        <mxCell id="wBLStyvCnBdGTO4EpeVb-11" style="edgeStyle=orthogonalEdgeStyle;rounded=0;orthogonalLoop=1;jettySize=auto;html=1;" edge="1" parent="1" source="wBLStyvCnBdGTO4EpeVb-8" target="wBLStyvCnBdGTO4EpeVb-10">
          <mxGeometry relative="1" as="geometry" />
        </mxCell>
        <mxCell id="wBLStyvCnBdGTO4EpeVb-8" value="choice" style="shape=parallelogram;perimeter=parallelogramPerimeter;whiteSpace=wrap;html=1;fixedSize=1;" vertex="1" parent="1">
          <mxGeometry x="354" y="290" width="120" height="60" as="geometry" />
        </mxCell>
        <mxCell id="wBLStyvCnBdGTO4EpeVb-12" value="TRUE" style="edgeStyle=orthogonalEdgeStyle;rounded=0;orthogonalLoop=1;jettySize=auto;html=1;" edge="1" parent="1" source="wBLStyvCnBdGTO4EpeVb-10">
          <mxGeometry relative="1" as="geometry">
            <mxPoint x="414" y="190" as="targetPoint" />
            <Array as="points">
              <mxPoint x="280" y="410" />
              <mxPoint x="280" y="190" />
              <mxPoint x="414" y="190" />
            </Array>
          </mxGeometry>
        </mxCell>
        <mxCell id="wBLStyvCnBdGTO4EpeVb-14" style="edgeStyle=orthogonalEdgeStyle;rounded=0;orthogonalLoop=1;jettySize=auto;html=1;entryX=0.5;entryY=0;entryDx=0;entryDy=0;" edge="1" parent="1" source="wBLStyvCnBdGTO4EpeVb-10" target="wBLStyvCnBdGTO4EpeVb-13">
          <mxGeometry relative="1" as="geometry" />
        </mxCell>
        <mxCell id="wBLStyvCnBdGTO4EpeVb-10" value="choice" style="rhombus;whiteSpace=wrap;html=1;" vertex="1" parent="1">
          <mxGeometry x="374" y="370" width="80" height="80" as="geometry" />
        </mxCell>
        <mxCell id="wBLStyvCnBdGTO4EpeVb-13" value="Конец" style="ellipse;whiteSpace=wrap;html=1;" vertex="1" parent="1">
          <mxGeometry x="354" y="470" width="120" height="80" as="geometry" />
        </mxCell>
      </root>
    </mxGraphModel>
  </diagram>
</mxfile>
